<svg width="504.99999999999994" height="119.5226518786931" viewBox="0 0 370.3903743315508 87.66344508999757" class="css-1j8o68f"><defs id="SvgjsDefs1095"></defs><g id="SvgjsG1096" featurekey="symbolFeature-0" transform="matrix(1.0039544095043138,0,0,1.0039544095043138,-11.043498504547452,-7.456941198992835)" fill="#8c82fc"><g xmlns="http://www.w3.org/2000/svg"><path fill="#8c82fc" d="M89.2,36.6l-4.8-17.1c-0.5-2.9-3.1-5.1-6.1-5.1H22.1c-3,0-5.5,2.1-6.1,5.1l-4.8,17.1c0,0.2-0.1,0.4-0.1,0.5   L11,46.6c0,3.4,2.4,6.2,5.7,6.9v29.1c0,3.4,2.8,6.2,6.2,6.2h54.5c3.4,0,6.2-2.8,6.2-6.2V53.5c3.3-0.7,5.7-3.5,5.7-6.9l-0.1-9.5   C89.3,36.9,89.2,36.7,89.2,36.6z M77.4,84.7H22.9c-1.1,0-2.1-0.9-2.1-2.1v-29h2c0.4,0,0.8,0,1.2-0.1v23.8c0,0.8,0.6,1.4,1.4,1.4   h49.3c0.8,0,1.4-0.6,1.4-1.4V53.5c0.5,0.1,1,0.2,1.5,0.2h1.9v29C79.5,83.8,78.6,84.7,77.4,84.7z M26.8,52.5   c0.4-0.3,0.8-0.6,1.1-0.9c1.3,1.3,3.1,2.1,5.1,2.1h4.6c2,0,3.8-0.8,5.1-2.1c1.3,1.3,3.1,2.1,5.1,2.1h4.6c2,0,3.8-0.8,5.1-2.1   c1.3,1.3,3.1,2.1,5.1,2.1h4.6c2,0,3.8-0.8,5.1-2.1c0.3,0.3,0.6,0.5,0.9,0.7V76H26.8V52.5z M82.2,49.6h-4.6c-1.7,0-3-1.3-3-2.9   c0-1.1-0.9-2.1-2.1-2.1s-2.1,0.9-2.1,2.1c0,1.6-1.4,2.9-3,2.9h-4.6c-1.7,0-3-1.3-3-2.9c0-1.1-0.9-2.1-2.1-2.1s-2.1,0.9-2.1,2.1   c0,1.6-1.4,2.9-3,2.9h-4.6c-1.7,0-3-1.3-3-2.9c0-1.1-0.9-2.1-2.1-2.1s-2.1,0.9-2.1,2.1c0,1.6-1.4,2.9-3,2.9H33c-1.7,0-3-1.3-3-2.9   c0-1.1-0.9-2.1-2.1-2.1s-2.1,0.9-2.1,2.1c0,1.6-1.4,2.9-3,2.9h-4.6c-1.7,0-3-1.3-3-2.9l0.1-9.2L20,20.5c0-0.1,0-0.2,0-0.2   c0.2-1,1-1.7,2-1.7h56.2c1,0,1.9,0.7,2,1.7c0,0.1,0,0.2,0,0.2l4.8,16.9l0.1,9.2C85.2,48.2,83.9,49.6,82.2,49.6z"></path><path fill="#8c82fc" d="M57.6,58.3c-0.5-0.5-1.4-0.5-1.9,0s-0.5,1.4,0,1.9l11.5,11.5c0.3,0.3,0.6,0.4,1,0.4s0.7-0.1,1-0.4   c0.5-0.5,0.5-1.4,0-1.9L57.6,58.3z"></path><path fill="#8c82fc" d="M56.5,64.8c-0.5-0.5-1.4-0.5-1.9,0c-0.5,0.5-0.5,1.4,0,1.9l5,5c0.3,0.3,0.6,0.4,1,0.4s0.7-0.1,1-0.4   c0.5-0.5,0.5-1.4,0-1.9L56.5,64.8z"></path><path fill="#8c82fc" d="M77.7,35.2H22.2c-0.8,0-1.4,0.6-1.4,1.4s0.6,1.4,1.4,1.4h55.4c0.8,0,1.4-0.6,1.4-1.4S78.4,35.2,77.7,35.2z"></path></g></g><g id="SvgjsG1097" featurekey="nameFeature-0" transform="matrix(1.2089735366038978,0,0,1.2089735366038978,96.34025729709782,-13.733937807785145)" fill="#8c82fc"><path d="M19.44 40.64 c-9.56 0 -17.24 -4.72 -17.24 -14.12 c0 -7.64 5.24 -15.16 16.36 -15.16 c4.88 0 8.68 1.44 8.2 2.8 l-0.6 1.68 c-1.4 3.96 -3 -1.24 -10.48 -1.24 c-6.2 0 -9.04 3.56 -9.04 9.6 c0 9 6.12 13.88 11.64 13.88 c2.88 0 3.96 -1.4 3.96 -3.68 l0 -0.72 c0 -3.04 -1.36 -4.04 -4.56 -4.52 c-0.52 -0.08 -0.04 -1.52 0.84 -1.52 l10.28 0 c1.12 0 0.72 1.4 0.28 1.52 c-1.48 0.4 -2.48 1.24 -2.48 3.8 l0 1.4 c0 0.96 0.08 1.8 0.84 3.04 c-2.4 1.32 -7.04 3.24 -8 3.24 z M33.519999999999996 40 c-0.32 0 -0.56 -1.32 -0.24 -1.36 c2.04 -0.28 3.32 -1.08 3.32 -3.6 l0 -18.08 c0 -2.52 -1.28 -3.32 -3.32 -3.6 c-0.32 -0.04 -0.08 -1.36 0.24 -1.36 l10.96 0 c0.32 0 0.56 1.32 0.24 1.36 c-1.72 0.24 -3.32 0.8 -3.32 3.6 l0 18.08 c0 2.8 1.6 3.36 3.32 3.6 c0.32 0.04 0.08 1.36 -0.24 1.36 l-10.96 0 z M47.88 40.08 c-0.4 0.04 -0.56 -1.36 -0.24 -1.44 c2.32 -0.6 4.12 -0.96 4.12 -3.92 l0 -17.76 c0 -2.56 -1.64 -3.24 -3.36 -3.68 c-0.32 -0.08 -0.12 -1.4 0.2 -1.36 c2.92 0.32 7.96 0.24 10.4 0.24 c3.64 0 6.28 -0.16 9.56 -0.24 c0.96 0 0.96 0.64 0.76 1.56 l-0.96 3.8 c-0.12 0.56 -1.12 0.56 -1.28 0 c-0.6 -1.96 -1.8 -3.08 -6.8 -3.08 c-2.8 0 -3.72 0.72 -3.72 2.8 l0 6.92 c0 1.04 0.52 1.24 1.32 1.24 l0.88 0 c3.24 0 6.04 -0.32 7.68 -1.8 c0.4 -0.36 1.28 -0.28 0.92 0.52 l-2.28 5.04 c-0.32 0.72 -0.92 0.64 -1.36 0.04 c-0.92 -1.28 -2.96 -1.8 -5.28 -1.8 l-0.56 0 c-0.8 0 -1.32 0.2 -1.32 1.24 l0 6.32 c0 2.96 1.84 3.2 5.12 3.92 c0.36 0.08 0.16 1.48 -0.24 1.44 c-2.88 -0.2 -4.96 -0.24 -7.28 -0.24 s-4.4 0.04 -6.28 0.24 z M78.80000000000001 40 c-0.36 0 -0.6 -1.28 -0.28 -1.32 c2.76 -0.36 4.6 -0.92 4.6 -3.08 l0 -19.72 c0 -1 -0.36 -1.32 -1.32 -1.32 l-1.08 0 c-3.8 0 -5.92 0.88 -6.72 2.6 c-0.36 0.8 -1.72 0.68 -1.56 0 c0.36 -1.44 0.68 -2.68 0.92 -4.8 c0.08 -0.76 0.52 -0.72 1.24 -0.64 c1.84 0.2 3.52 0.28 11.12 0.28 s10.28 -0.08 12.2 -0.28 c0.72 -0.08 1.4 -0.12 1.16 0.64 c-0.6 1.88 -1 3.36 -1.24 4.8 c-0.12 0.68 -1.2 0.72 -1.36 0 c-0.4 -1.68 -2.16 -2.6 -5.6 -2.6 l-1.24 0 c-0.96 0 -1.56 0.32 -1.56 1.32 l0 19.72 c0 2.16 1.84 2.72 4.6 3.08 c0.32 0.04 0.08 1.32 -0.28 1.32 l-13.6 0 z M110.56 40.64 c-3.28 0 -8.28 -1.44 -7.8 -3.2 l0.4 -1.48 c1.12 -4.2 2.44 1.96 9.04 1.96 c3.36 0 5 -1.64 5 -3.96 c0 -1.88 -1.2 -2.68 -4.04 -4.44 l-3.88 -2.44 c-4.32 -2.72 -6.08 -4.4 -6.08 -7.4 c0 -4.92 4.8 -8.32 9.76 -8.32 c3.04 0 6.92 1.32 6.48 2.68 l-0.48 1.52 c-1.24 3.88 -2.24 -1.48 -7.72 -1.48 c-2.84 0 -4.32 1.44 -4.32 3.56 c0 1.8 1.08 2.8 3.76 4.44 l4.2 2.6 c4.24 2.64 5.96 4.44 5.96 7.32 c0 5 -4.92 8.64 -10.28 8.64 z M161.52 38.64 c0.56 0.08 0.4 1.36 -0.08 1.36 l-10.56 0 c-0.52 0 -0.56 -1.28 -0.12 -1.36 c1.48 -0.28 3.08 -0.8 1.6 -4.24 l-0.44 -1 c-0.4 -0.96 -1.08 -1.04 -2.28 -1.04 l-8.16 0 c-1.2 0 -1.88 0.08 -2.28 1.04 l-0.4 1 c-1.4 3.44 0.12 3.96 2.04 4.24 c0.52 0.08 0.4 1.36 -0.12 1.36 l-8.64 0 c-0.48 0 -0.6 -1.28 -0.12 -1.36 c1.64 -0.28 2.6 -0.84 4.08 -4.24 l6.76 -15.52 c1.56 -3.52 2.04 -5.16 2.04 -6.68 c0 -0.24 2.8 -0.88 2.92 -0.6 l9.76 22.76 c1.44 3.4 2.4 4.04 4 4.28 z M149.36 30.119999999999997 c0.56 0 1.16 -0.08 0.92 -0.64 l-4.68 -11.2 l-4.72 11.2 c-0.24 0.56 0.36 0.64 0.92 0.64 l7.56 0 z M191.00000000000003 40.4 c-0.68 0 -1.04 -0.28 -1.48 -0.76 l-19.04 -19.92 l0 15.2 c0 2.72 1.6 3.16 3.88 3.72 c0.32 0.08 0.16 1.36 -0.24 1.36 l-9.48 0 c-0.32 0 -0.56 -1.24 -0.2 -1.36 c1.68 -0.56 3.28 -0.88 3.28 -3.72 l0 -15.52 c0 -2.84 -0.44 -4.2 -1.48 -5.6 c-0.36 -0.48 -0.72 -0.8 -0.72 -0.92 c0 -0.36 0.24 -0.88 0.8 -0.88 l2.96 0 c0.4 0 0.68 0.04 0.96 0.36 l18.64 19.72 l0 -15.04 c0 -2.84 -1.8 -3.16 -3.88 -3.68 c-0.32 -0.08 -0.16 -1.36 0.24 -1.36 l9.48 0 c0.32 0 0.52 1.28 0.2 1.36 c-1.76 0.52 -3.28 0.84 -3.28 3.68 l0 15.56 c0 2.64 0.08 5.56 0.48 7.04 c0.16 0.6 -0.48 0.76 -1.12 0.76 z M198.08 40.08 c-0.4 0.04 -0.56 -1.36 -0.24 -1.44 c2.32 -0.6 4.12 -0.96 4.12 -3.92 l0 -17.76 c0 -2.56 -1.64 -3.24 -3.36 -3.68 c-0.32 -0.08 -0.12 -1.4 0.2 -1.36 c1.64 0.2 3.32 0.24 5 0.24 c3.12 0 5.92 -0.24 7.96 -0.24 c9.68 0 14.92 5.76 14.92 13.48 c0 7.68 -5.24 14.68 -14.96 14.68 c-1.92 0 -4.4 -0.24 -7.36 -0.24 c-2.48 0 -4.44 0.04 -6.28 0.24 z M212.12 37.96 c6.52 0 9.76 -3.52 9.76 -10.28 c0 -7.64 -4.16 -13.64 -11.36 -13.64 c-2.84 0 -3.76 0.88 -3.76 2.92 l0 17.76 c0 2.16 1.48 3.24 5.36 3.24 z"></path></g><g id="SvgjsG1098" featurekey="nameFeature-1" transform="matrix(1.443466120174022,0,0,1.443466120174022,97.28664231492633,28.60222674699444)" fill="#8c82fc"><path d="M7.56 40 c-0.36 0 -0.6 -1.28 -0.28 -1.32 c2.76 -0.36 4.6 -0.92 4.6 -3.08 l0 -19.72 c0 -1 -0.36 -1.32 -1.32 -1.32 l-1.08 0 c-3.8 0 -5.92 0.88 -6.72 2.6 c-0.36 0.8 -1.72 0.68 -1.56 0 c0.36 -1.44 0.68 -2.68 0.92 -4.8 c0.08 -0.76 0.52 -0.72 1.24 -0.64 c1.84 0.2 3.52 0.28 11.12 0.28 s10.28 -0.08 12.2 -0.28 c0.72 -0.08 1.4 -0.12 1.16 0.64 c-0.6 1.88 -1 3.36 -1.24 4.8 c-0.12 0.68 -1.2 0.72 -1.36 0 c-0.4 -1.68 -2.16 -2.6 -5.6 -2.6 l-1.24 0 c-0.96 0 -1.56 0.32 -1.56 1.32 l0 19.72 c0 2.16 1.84 2.72 4.6 3.08 c0.32 0.04 0.08 1.32 -0.28 1.32 l-13.6 0 z M60.92 38.64 c0.32 0.04 0.08 1.36 -0.24 1.36 l-10.96 0 c-0.32 0 -0.56 -1.32 -0.24 -1.36 c2.04 -0.28 3.32 -1.08 3.32 -3.6 l0 -6.88 c-0.2 -0.68 -1.04 -0.68 -1.8 -0.68 l-10.24 0 c-0.76 0 -1.6 0 -1.8 0.68 l0 6.88 c0 2.8 1.6 3.36 3.32 3.6 c0.32 0.04 0.08 1.36 -0.24 1.36 l-10.96 0 c-0.32 0 -0.56 -1.32 -0.24 -1.36 c2.04 -0.28 3.32 -1.08 3.32 -3.6 l0 -18.08 c0 -2.52 -1.28 -3.32 -3.32 -3.6 c-0.32 -0.04 -0.08 -1.36 0.24 -1.36 l10.96 0 c0.32 0 0.56 1.32 0.24 1.36 c-1.72 0.24 -3.32 0.8 -3.32 3.6 l0 7.32 c0.2 0.68 1.04 0.68 1.8 0.68 l10.24 0 c0.76 0 1.6 0 1.8 -0.68 l0 -7.32 c0 -2.52 -1.28 -3.32 -3.32 -3.6 c-0.32 -0.04 -0.08 -1.36 0.24 -1.36 l10.96 0 c0.32 0 0.56 1.32 0.24 1.36 c-1.72 0.24 -3.32 0.8 -3.32 3.6 l0 18.08 c0 2.8 1.6 3.36 3.32 3.6 z M64.68 40 c-0.32 0 -0.56 -1.32 -0.24 -1.36 c2.04 -0.28 3.32 -1.08 3.32 -3.6 l0 -18.08 c0 -2.52 -1.28 -3.32 -3.32 -3.6 c-0.32 -0.04 -0.08 -1.36 0.24 -1.36 l10.96 0 c0.32 0 0.56 1.32 0.24 1.36 c-1.72 0.24 -3.32 0.8 -3.32 3.6 l0 18.08 c0 2.8 1.6 3.36 3.32 3.6 c0.32 0.04 0.08 1.36 -0.24 1.36 l-10.96 0 z M105.76000000000002 40.4 c-0.68 0 -1.04 -0.28 -1.48 -0.76 l-19.04 -19.92 l0 15.2 c0 2.72 1.6 3.16 3.88 3.72 c0.32 0.08 0.16 1.36 -0.24 1.36 l-9.48 0 c-0.32 0 -0.56 -1.24 -0.2 -1.36 c1.68 -0.56 3.28 -0.88 3.28 -3.72 l0 -15.52 c0 -2.84 -0.44 -4.2 -1.48 -5.6 c-0.36 -0.48 -0.72 -0.8 -0.72 -0.92 c0 -0.36 0.24 -0.88 0.8 -0.88 l2.96 0 c0.4 0 0.68 0.04 0.96 0.36 l18.64 19.72 l0 -15.04 c0 -2.84 -1.8 -3.16 -3.88 -3.68 c-0.32 -0.08 -0.16 -1.36 0.24 -1.36 l9.48 0 c0.32 0 0.52 1.28 0.2 1.36 c-1.76 0.52 -3.28 0.84 -3.28 3.68 l0 15.56 c0 2.64 0.08 5.56 0.48 7.04 c0.16 0.6 -0.48 0.76 -1.12 0.76 z M130.88000000000002 40.64 c-9.56 0 -17.24 -4.72 -17.24 -14.12 c0 -7.64 5.24 -15.16 16.36 -15.16 c4.88 0 8.68 1.44 8.2 2.8 l-0.6 1.68 c-1.4 3.96 -3 -1.24 -10.48 -1.24 c-6.2 0 -9.04 3.56 -9.04 9.6 c0 9 6.12 13.88 11.64 13.88 c2.88 0 3.96 -1.4 3.96 -3.68 l0 -0.72 c0 -3.04 -1.36 -4.04 -4.56 -4.52 c-0.52 -0.08 -0.04 -1.52 0.84 -1.52 l10.28 0 c1.12 0 0.72 1.4 0.28 1.52 c-1.48 0.4 -2.48 1.24 -2.48 3.8 l0 1.4 c0 0.96 0.08 1.8 0.84 3.04 c-2.4 1.32 -7.04 3.24 -8 3.24 z M163.68 40.24 c-2.2 -0.56 -6.28 -0.44 -10.24 -0.44 c-3.48 0 -6.6 0.08 -8.88 0.32 c-0.36 0.04 -0.76 -0.88 -0.56 -1.2 l16.28 -24.4 l-7.08 -0.04 c-4.52 -0.04 -5.96 1.12 -7 2.36 c-0.44 0.52 -1.52 0.2 -1.28 -0.52 l1.44 -4.04 c0.24 -0.68 1.04 -0.64 1.52 -0.52 c2.2 0.56 6.2 0.44 9.72 0.44 c3.28 0 6.4 -0.08 8.68 -0.32 c0.36 -0.04 0.76 0.88 0.56 1.2 l-16.28 24.4 l7.8 0.04 c4.52 0.04 5.96 -1.12 7 -2.36 c0.44 -0.52 1.52 -0.2 1.28 0.52 l-1.44 4.04 c-0.24 0.68 -1.04 0.64 -1.52 0.52 z M178.92000000000002 40.64 c-3.28 0 -8.28 -1.44 -7.8 -3.2 l0.4 -1.48 c1.12 -4.2 2.44 1.96 9.04 1.96 c3.36 0 5 -1.64 5 -3.96 c0 -1.88 -1.2 -2.68 -4.04 -4.44 l-3.88 -2.44 c-4.32 -2.72 -6.08 -4.4 -6.08 -7.4 c0 -4.92 4.8 -8.32 9.76 -8.32 c3.04 0 6.92 1.32 6.48 2.68 l-0.48 1.52 c-1.24 3.88 -2.24 -1.48 -7.72 -1.48 c-2.84 0 -4.32 1.44 -4.32 3.56 c0 1.8 1.08 2.8 3.76 4.44 l4.2 2.6 c4.24 2.64 5.96 4.44 5.96 7.32 c0 5 -4.92 8.64 -10.28 8.64 z"></path></g></svg>
